<svg width="200" height="200" viewBox="0 0 50 50" fill="none" xmlns="http://www.w3.org/2000/svg">
<path d="M40.7895 5H9.21053C6.87134 5 5 6.87134 5 9.21053V40.7895C5 43.1287 6.87134 45 9.21053 45H40.7895C43.0819 45 45 43.1287 45 40.7895V9.21053C45 6.87134 43.1287 5 40.7895 5ZM24.9298 29.3743C26.2398 29.3743 27.6433 28.8596 29 27.6433L30.8713 29.7953C28.9064 31.386 26.6608 32.2749 24.4152 32.2749C19.9708 32.2749 17.1637 29.3275 17.8187 25.1637C18.4737 21 22.2632 18.0526 26.7076 18.0526C28.8596 18.0526 30.8713 18.8947 32.2749 20.4386L29.655 22.5906C28.9064 21.6082 27.6433 20.9532 26.2398 20.9532C23.5731 20.9532 21.5146 22.6842 21.0936 25.1637C20.7193 27.6433 22.2164 29.3743 24.9298 29.3743Z" fill="#E5422B"/>
</svg>
