<svg viewBox="0 0 50 50" fill="none" xmlns="http://www.w3.org/2000/svg">
<path d="M29.0149 19.7254L25.2144 23.2641L21.6865 16.1452L23.509 12.052C23.9696 11.2355 24.7229 11.2247 25.1836 12.052L29.0149 19.7254Z" fill="#FFA000"/>
<path d="M25.2162 23.2626L11 36.4851L21.6883 16.1453L25.2162 23.2626Z" fill="#F57F17"/>
<path d="M33.1823 14.3138C33.8632 13.6652 34.5642 13.884 34.7414 14.8052L38.4371 36.3066L26.179 43.6658C25.7492 43.9061 24.6092 44.0001 24.6092 44.0001C24.6092 44.0001 23.5724 43.8738 23.1749 43.655L11 36.4853L33.1823 14.3138Z" fill="#FFCA28"/>
<path d="M21.6883 16.1453L11 36.4851L15.7634 6.75563C15.9421 5.83439 16.4643 5.74041 16.9357 6.5569L21.6883 16.1453Z" fill="#FFA000"/>
</svg>
