<svg viewBox="0 0 50 50" fill="none" xmlns="http://www.w3.org/2000/svg">
<path d="M10.2779 35.577L8.79297 34.7266L25.3355 6.30933L26.8204 7.15965L10.2779 35.577Z" fill="#E535AB"/>
<path d="M8.45215 32.4563H41.5372V34.157H8.45215V32.4563Z" fill="#E535AB"/>
<path d="M25.6561 42.8884L9.10742 33.4118L9.96476 31.939L26.5135 41.4156L25.6561 42.8884ZM40.032 18.1901L23.4832 8.71353L24.3406 7.24072L40.8893 16.7173L40.032 18.1901Z" fill="#E535AB"/>
<path d="M9.96964 18.1834L9.1123 16.7107L25.661 7.23413L26.5184 8.70684L9.96964 18.1834Z" fill="#E535AB"/>
<path d="M39.7259 35.5772L23.1834 7.1599L24.6684 6.30957L41.2109 34.7269L39.7259 35.5772ZM9.76367 15.5829H11.4784V34.536H9.76367V15.5829Z" fill="#E535AB"/>
<path d="M38.5205 15.583H40.2352V34.5361H38.5205V15.583Z" fill="#E535AB"/>
<path d="M25.3641 42.1685L24.6152 40.8819L39.0082 32.6399L39.7571 33.9263L25.3641 42.1685Z" fill="#E535AB"/>
<path d="M42.5083 35.0893C41.5167 36.8002 39.3062 37.3841 37.5812 36.4006C35.8562 35.4171 35.2674 33.2247 36.259 31.5138C37.2507 29.8029 39.4611 29.2189 41.1862 30.2025C42.9215 31.1962 43.5103 33.3784 42.5083 35.0893ZM13.7306 18.6052C12.739 20.3161 10.5285 20.9001 8.80352 19.9166C7.07851 18.9331 6.48974 16.7407 7.48136 15.0298C8.47298 13.3189 10.6835 12.7349 12.4085 13.7184C14.1335 14.7122 14.7223 16.8943 13.7306 18.6052ZM7.49169 35.0893C6.50006 33.3784 7.08884 31.1962 8.81385 30.2025C10.5389 29.2189 12.739 29.8029 13.741 31.5138C14.7326 33.2247 14.1438 35.4069 12.4188 36.4006C10.6835 37.3841 8.48331 36.8002 7.49169 35.0893ZM36.2694 18.6052C35.2777 16.8943 35.8665 14.7122 37.5915 13.7184C39.3165 12.7349 41.5167 13.3189 42.5186 15.0298C43.5103 16.7407 42.9215 18.9228 41.1965 19.9166C39.4715 20.9001 37.261 20.3161 36.2694 18.6052ZM25 45.119C23.0064 45.119 21.395 43.5208 21.395 41.5436C21.395 39.5663 23.0064 37.9681 25 37.9681C26.9936 37.9681 28.605 39.5663 28.605 41.5436C28.605 43.5106 26.9936 45.119 25 45.119ZM25 12.1509C23.0064 12.1509 21.395 10.5527 21.395 8.57547C21.395 6.5982 23.0064 5 25 5C26.9936 5 28.605 6.5982 28.605 8.57547C28.605 10.5527 26.9936 12.1509 25 12.1509Z" fill="#E535AB"/>
</svg>
