<svg viewBox="0 0 50 50" fill="none" xmlns="http://www.w3.org/2000/svg">
<path d="M5 5H45V45H5V5Z" fill="#F0DB4F"/>
<path d="M41.7266 35.4597C41.4338 33.6346 40.2437 32.1023 36.719 30.6726C35.4947 30.1099 34.1296 29.7069 33.7228 28.7791C33.5783 28.2392 33.5593 27.935 33.6506 27.608C33.9129 26.5471 35.1791 26.2163 36.1829 26.5205C36.8293 26.7373 37.4414 27.2354 37.8102 28.03C39.5365 26.9122 39.5327 26.9198 40.738 26.1517C40.2969 25.4673 40.0612 25.1517 39.7722 24.859C38.7342 23.6993 37.3198 23.1023 35.0574 23.1479C34.6658 23.1974 34.2704 23.2506 33.8787 23.3C32.7494 23.5852 31.6734 24.1784 31.0422 24.973C29.1487 27.1213 29.6886 30.8817 31.9928 32.4293C34.2627 34.1327 37.5973 34.5206 38.0232 36.1137C38.4376 38.0643 36.5898 38.6954 34.7532 38.4711C33.3996 38.1898 32.6468 37.5016 31.8331 36.2506C30.335 37.1175 30.335 37.1175 28.7951 38.0035C29.1601 38.8019 29.5441 39.1632 30.1563 39.8552C33.0536 42.7943 40.3045 42.6498 41.605 38.2012C41.6582 38.049 42.008 37.03 41.7266 35.4597ZM26.7456 23.3836H23.0042C23.0042 26.6156 22.989 29.8247 22.989 33.0567C22.989 35.1137 23.0955 36.9996 22.7609 37.5776C22.2133 38.7144 20.7951 38.5738 20.1487 38.3532C19.4909 38.03 19.1563 37.5699 18.7685 36.9198C18.662 36.7335 18.5822 36.589 18.5555 36.5776C17.5403 37.1973 16.5289 37.8209 15.5137 38.4407C16.0194 39.4787 16.7646 40.3798 17.719 40.9654C19.1449 41.8209 21.0612 42.0832 23.065 41.6232C24.3692 41.2429 25.4947 40.4559 26.084 39.2582C26.9357 37.6878 26.7532 35.7867 26.7456 33.684C26.7646 30.2544 26.7456 26.8247 26.7456 23.3836Z" fill="#323330"/>
</svg>
