<svg viewBox="0 0 50 50" fill="none" xmlns="http://www.w3.org/2000/svg">
<path d="M24.8576 5.10938L25.925 7.11422C26.165 7.48419 26.425 7.81166 26.7312 8.11664C27.629 9.00323 28.4658 9.94948 29.236 10.9489C31.0446 13.3237 32.2645 15.961 33.1357 18.8133C33.6582 20.5557 33.9419 22.343 33.9631 24.1504C34.0506 29.5537 32.1983 34.1933 28.4636 38.0493C27.8561 38.6608 27.1998 39.2217 26.5012 39.7267C26.1313 39.7267 25.9563 39.4429 25.8038 39.1817C25.5261 38.6973 25.3413 38.1653 25.2588 37.6131C25.1276 36.9594 25.0413 36.3057 25.0838 35.6307V35.3258C25.0538 35.2608 24.7276 5.26311 24.8576 5.10938Z" fill="#599636"/>
<path d="M24.8582 5.043C24.8144 4.95551 24.7707 5.02175 24.7269 5.06425C24.7482 5.50171 24.5957 5.89168 24.3569 6.26415C24.0945 6.63413 23.747 6.91785 23.3983 7.22283C21.4609 8.9002 19.936 10.9263 18.7149 13.1924C17.09 16.2421 16.2526 19.5106 16.0151 22.9516C15.9064 24.1927 16.4076 28.5724 16.7988 29.8361C17.8662 33.1908 19.7835 36.0018 22.2671 38.4416C22.8771 39.0291 23.5295 39.574 24.2045 40.0977C24.4007 40.0977 24.4219 39.9228 24.4669 39.7928C24.553 39.5146 24.6186 39.2306 24.6632 38.9428L25.1006 35.6756L24.8582 5.043Z" fill="#6CAC48"/>
<path d="M25.9262 41.054C25.9699 40.554 26.2099 40.1391 26.4712 39.7253C26.2087 39.6166 26.0137 39.4004 25.8612 39.1591C25.7297 38.9307 25.6209 38.69 25.5362 38.4404C25.2312 37.5255 25.1663 36.5656 25.0788 35.6307V35.0645C24.97 35.1519 24.9475 35.8919 24.9475 36.0019C24.8839 36.99 24.7528 37.9727 24.5551 38.9429C24.4901 39.3354 24.4463 39.7266 24.2051 40.0753C24.2051 40.1191 24.2051 40.1628 24.2263 40.2278C24.6188 41.3827 24.7263 42.5589 24.7925 43.7575V44.195C24.7925 44.7174 24.7713 44.6075 25.205 44.7824C25.38 44.8474 25.575 44.8699 25.75 44.9999C25.8812 44.9999 25.9024 44.8912 25.9024 44.8037L25.8375 44.085V42.0802C25.8162 41.7302 25.8812 41.3827 25.9249 41.0552L25.9262 41.054Z" fill="#C2BFBF"/>
</svg>
