<svg width="50" height="50" viewBox="0 0 50 50" fill="none" xmlns="http://www.w3.org/2000/svg">
<path d="M22.9242 4.43741C23.9408 3.85551 25.2649 3.85288 26.2807 4.43741C31.3907 7.32487 36.5024 10.2078 41.6116 13.097C42.5726 13.6383 43.2154 14.7078 43.2056 15.8151V33.1871C43.2128 34.3403 42.5064 35.4353 41.4926 35.9643C36.3993 38.8359 31.3087 41.7109 26.2163 44.5825C25.1786 45.1758 23.8279 45.1301 22.8227 44.4881C21.2957 43.603 19.7661 42.7221 18.239 41.8378C17.927 41.6518 17.5752 41.5037 17.3549 41.2012C17.5497 40.9386 17.8979 40.9059 18.1809 40.7913C18.8183 40.5886 19.4037 40.2633 19.9893 39.9476C20.1373 39.8462 20.3181 39.8851 20.46 39.9757C21.7658 40.7244 23.06 41.4948 24.3701 42.2363C24.6496 42.3977 24.9326 42.1835 25.1715 42.0503C30.1695 39.2255 35.1738 36.4113 40.171 33.5856C40.3561 33.4966 40.4585 33.3 40.4434 33.0972C40.4469 27.3665 40.4443 21.6348 40.4452 15.9042C40.4664 15.674 40.3332 15.4624 40.1251 15.3683C35.0495 12.5099 29.9765 9.64707 24.9018 6.78794C24.8138 6.7275 24.7097 6.69507 24.603 6.69491C24.4963 6.69475 24.3921 6.72688 24.304 6.78707C19.2292 9.64707 14.1571 12.5125 9.08238 15.3707C8.87503 15.4651 8.73587 15.6731 8.76054 15.9042C8.76142 21.6348 8.76054 27.3665 8.76054 33.0981C8.75174 33.197 8.77348 33.2963 8.82282 33.3825C8.87217 33.4688 8.94675 33.5378 9.03653 33.5804C10.3907 34.3483 11.7467 35.1108 13.1018 35.8762C13.8652 36.2871 14.8025 36.5312 15.6436 36.2164C16.3859 35.9502 16.9061 35.1928 16.892 34.4047C16.899 28.7074 16.8885 23.0093 16.8972 17.313C16.8787 17.0601 17.1186 16.8511 17.3645 16.8749C18.0152 16.8705 18.6667 16.8662 19.3174 16.8767C19.589 16.8705 19.7759 17.1429 19.7423 17.3977C19.7397 23.131 19.7494 28.8644 19.738 34.5977C19.7397 36.1257 19.112 37.7883 17.6986 38.536C15.9574 39.4379 13.8053 39.2467 12.0852 38.3818C10.5961 37.6385 9.17496 36.7613 7.71224 35.9651C6.69578 35.439 5.99297 34.3396 6.00013 33.1873V15.8151C5.98947 14.6849 6.65781 13.596 7.64872 13.0625C12.7411 10.1887 17.8327 7.3126 22.9242 4.43741Z" fill="#8CC84B"/>
<path d="M27.3667 16.4712C29.5877 16.3282 31.9654 16.3865 33.964 17.4806C35.5114 18.3191 36.3693 20.0788 36.3966 21.7979C36.3533 22.0298 36.1109 22.1577 35.8896 22.1418C35.2452 22.141 34.6006 22.1506 33.9562 22.1374C33.6829 22.148 33.524 21.8959 33.4897 21.6543C33.3045 20.8317 32.8559 20.0171 32.0817 19.6203C30.8933 19.0253 29.5152 19.0552 28.2193 19.0676C27.2732 19.1178 26.2559 19.1998 25.4543 19.7561C24.839 20.1775 24.6521 21.0283 24.8717 21.7134C25.0788 22.2054 25.6466 22.3641 26.1113 22.5104C28.7879 23.2104 31.6242 23.1408 34.2497 24.062C35.3367 24.4376 36.4001 25.1677 36.7721 26.3058C37.2588 27.8312 37.0455 29.6544 35.9603 30.879C35.0802 31.8867 33.7984 32.4351 32.5199 32.733C30.8192 33.1122 29.0542 33.1219 27.3271 32.9535C25.703 32.7684 24.0129 32.3417 22.7592 31.2351C21.6871 30.3042 21.1635 28.8538 21.2154 27.4539C21.2278 27.2174 21.4632 27.0526 21.6897 27.072C22.3386 27.0667 22.9876 27.065 23.6365 27.0729C23.8957 27.0543 24.0879 27.2783 24.1011 27.5226C24.2209 28.3063 24.5154 29.1289 25.1988 29.5935C26.5177 30.4444 28.1726 30.3861 29.6827 30.4099C30.9338 30.3545 32.3383 30.3377 33.3593 29.5107C33.898 29.0391 34.0576 28.25 33.912 27.5711C33.7543 26.998 33.1547 26.7309 32.6398 26.5562C29.9975 25.7204 27.1295 26.0237 24.5128 25.0785C23.4505 24.7031 22.4232 23.9933 22.0151 22.9019C21.4456 21.3573 21.7065 19.4467 22.9055 18.2635C24.0746 17.0865 25.7622 16.6334 27.3667 16.4712Z" fill="#8CC84B"/>
</svg>
