<svg width="50" height="50" viewBox="0 0 50 50" fill="none" xmlns="http://www.w3.org/2000/svg">
<path d="M17.1596 38.7062C17.1298 38.6537 17.1033 38.5995 17.0802 38.5437C16.9205 38.174 16.8715 37.7658 16.9389 37.3687H7.48269L21.5358 12.6375L26.1496 20.7481L27.4871 18.3812L23.4652 11.2962C23.2725 10.9334 22.9919 10.6246 22.649 10.3982C22.3062 10.1717 21.9121 10.0348 21.5027 10C21.0941 10.0186 20.699 10.1514 20.3622 10.3835C20.0255 10.6155 19.7606 10.9374 19.5977 11.3125L5.36082 36.3437C5.14801 36.6971 5.02531 37.0974 5.00352 37.5094C4.98172 37.9213 5.06149 38.3323 5.23582 38.7062C5.45476 39.0515 5.76596 39.3286 6.13421 39.5062C6.50246 39.6838 6.91306 39.7549 7.31957 39.7112H19.2439C18.8374 39.7555 18.4265 39.6848 18.0581 39.5071C17.6898 39.3295 17.378 39.052 17.1596 38.7062Z" fill="#00C492"/>
<path d="M44.5748 36.3432L32.8754 15.7351C32.6835 15.3684 32.4023 15.0559 32.0578 14.8265C31.7133 14.5972 31.3165 14.4582 30.9042 14.4226C30.4961 14.4403 30.1013 14.5723 29.7647 14.8036C29.4281 15.0349 29.1633 15.3562 29.0004 15.7307L27.4873 18.3807L28.8336 20.7482L30.9167 17.0601L42.491 37.3682H38.0898C38.146 37.7039 38.1144 38.0484 37.9979 38.3682C37.9734 38.4389 37.9426 38.5073 37.906 38.5726L37.8686 38.6476C37.6295 38.9853 37.3108 39.2589 36.9409 39.4442C36.5709 39.6296 36.161 39.7209 35.7473 39.7101H42.6323C43.046 39.7212 43.4561 39.63 43.8261 39.4447C44.1961 39.2593 44.5147 38.9856 44.7535 38.6476C44.9421 38.2852 45.0253 37.8772 44.9937 37.4699C44.9621 37.0625 44.817 36.6722 44.5748 36.3432Z" fill="#008776"/>
<path d="M37.8692 38.6482L37.9067 38.5732C37.9431 38.5079 37.9736 38.4395 37.998 38.3688C38.1144 38.049 38.1461 37.7045 38.0898 37.3688C38.0249 37.0068 37.8949 36.6595 37.7061 36.3438L28.8423 20.7482L27.488 18.3813L26.1417 20.7482L17.2811 36.3438C17.1091 36.6633 16.9934 37.0101 16.9392 37.3688C16.8679 37.765 16.9128 38.1733 17.0686 38.5445C17.0917 38.6002 17.1182 38.6545 17.148 38.707C17.367 39.0521 17.6782 39.3291 18.0465 39.5066C18.4147 39.6841 18.8253 39.755 19.2317 39.7113H35.7348C36.1505 39.7236 36.5627 39.6331 36.935 39.4477C37.3072 39.2624 37.6279 38.9879 37.8686 38.6488L37.8692 38.6482ZM27.4873 23.1157L35.5892 37.3682H19.3892L27.4873 23.1157Z" fill="#2D4A5D"/>
</svg>
