<svg width="200" height="200" viewBox="0 0 50 50" fill="none" xmlns="http://www.w3.org/2000/svg">
<path d="M39.4309 27.2156C38.0325 27.2235 36.8215 27.5593 35.8059 28.0594C35.4309 27.3172 35.0559 26.6687 34.9935 26.1844C34.9232 25.6219 34.8372 25.2781 34.9232 24.6063C35.009 23.9343 35.3997 22.9812 35.3997 22.9031C35.3918 22.8328 35.3136 22.489 34.509 22.4812C33.7044 22.4734 33.009 22.6375 32.9309 22.8484C32.8528 23.0593 32.6965 23.5437 32.595 24.0437C32.4543 24.7781 30.9856 27.3796 30.1497 28.7468C29.8762 28.2156 29.6418 27.7468 29.5949 27.3718C29.5247 26.8093 29.4386 26.4655 29.5247 25.7937C29.6106 25.1217 30.0012 24.1687 30.0012 24.0906C29.9934 24.0203 29.9153 23.6765 29.1107 23.6687C28.3059 23.6609 27.6107 23.825 27.5326 24.0359C27.4544 24.2468 27.3685 24.7468 27.1966 25.2312C27.0325 25.7156 25.0793 30.0593 24.5715 31.1921C24.3137 31.7703 24.0872 32.2312 23.9231 32.5437C23.759 32.8562 23.9153 32.5671 23.8997 32.5984C23.759 32.864 23.6809 33.0125 23.6809 33.0125V33.0203C23.5715 33.2157 23.4543 33.4031 23.3996 33.4031C23.3605 33.4031 23.2824 32.8796 23.4152 32.161C23.7043 30.6531 24.4074 28.3016 24.3997 28.2157C24.3997 28.1766 24.5324 27.7625 23.9465 27.5516C23.3761 27.3407 23.1731 27.6922 23.1261 27.6922C23.0793 27.6922 23.0402 27.8172 23.0402 27.8172C23.0402 27.8172 23.673 25.1689 21.8293 25.1689C20.673 25.1689 19.0793 26.4267 18.2902 27.5751C17.7902 27.8485 16.7277 28.4266 15.6027 29.0439C15.173 29.2782 14.7277 29.5282 14.3058 29.7548L14.22 29.6609C11.9856 27.2781 7.85279 25.5906 8.02466 22.3875C8.08716 21.2234 8.49341 18.1531 15.9622 14.4343C22.0794 11.3875 26.9779 12.2234 27.8293 14.0828C29.0403 16.739 25.2122 21.6765 18.8529 22.3875C16.431 22.6609 15.1575 21.7234 14.8372 21.3718C14.5013 21.0046 14.4544 20.989 14.3294 21.0593C14.1263 21.1687 14.2513 21.4968 14.3294 21.6921C14.5169 22.1843 15.2982 23.0593 16.6263 23.4968C17.7903 23.8796 20.6341 24.0906 24.0716 22.7625C27.9232 21.2703 30.931 17.1296 30.0482 13.6687C29.1497 10.1453 23.306 8.98901 17.7826 10.95C14.4934 12.1218 10.9309 13.95 8.36841 16.3484C5.32154 19.1921 4.83716 21.6765 5.04029 22.7078C5.7513 26.3875 10.8215 28.7859 12.8528 30.5593C12.7512 30.6139 12.6575 30.6686 12.5715 30.7156C11.5559 31.2155 7.68872 33.239 6.71997 35.3796C5.62622 37.8014 6.89185 39.5437 7.7356 39.7781C10.345 40.5046 13.0168 39.2 14.4622 37.0515C15.8996 34.9031 15.7278 32.114 15.0637 30.8406L15.0402 30.7937L15.8371 30.325C16.3528 30.0203 16.8606 29.739 17.3058 29.4968C17.0559 30.1764 16.8761 30.9811 16.7825 32.153C16.6731 33.5281 17.2356 35.3093 17.9778 36.0124C18.3059 36.317 18.6965 36.3249 18.9387 36.3249C19.7981 36.3249 20.1887 35.6139 20.6184 34.7624C21.1497 33.7233 21.6184 32.5202 21.6184 32.5202C21.6184 32.5202 21.0325 35.778 22.634 35.778C23.22 35.778 23.8059 35.0202 24.0715 34.6296V34.6374C24.0715 34.6374 24.0872 34.6139 24.1184 34.5593C24.1512 34.5108 24.1825 34.4613 24.2122 34.4109V34.3953C24.4465 33.989 24.97 33.0593 25.7512 31.5203C26.759 29.5359 27.7278 27.0515 27.7278 27.0515C27.7278 27.0515 27.8215 27.6609 28.1106 28.6609C28.2824 29.2547 28.6574 29.9031 28.9465 30.5359C28.7121 30.864 28.5715 31.0516 28.5715 31.0516L28.5793 31.0594C28.3918 31.3094 28.1808 31.5751 27.9622 31.8407C27.1653 32.7938 26.2122 33.8798 26.0872 34.1923C25.9387 34.5594 25.97 34.8328 26.259 35.0517C26.47 35.2079 26.845 35.2391 27.2434 35.2079C27.9622 35.161 28.4622 34.9814 28.7122 34.8719C29.1028 34.7313 29.5481 34.5203 29.9778 34.2078C30.759 33.6298 31.2356 32.8095 31.1887 31.7157C31.1653 31.1142 30.97 30.5204 30.7278 29.9579C30.7981 29.8564 30.8685 29.7547 30.9387 29.6454C32.1731 27.8407 33.1262 25.8564 33.1262 25.8564C33.1262 25.8564 33.22 26.4657 33.509 27.4657C33.6574 27.9735 33.9543 28.5283 34.22 29.0752C33.0637 30.0205 32.3372 31.1143 32.0872 31.833C31.6262 33.1611 31.9856 33.7627 32.6653 33.9033C32.9699 33.9658 33.4075 33.8252 33.7355 33.6846C34.1418 33.5518 34.634 33.3251 35.0872 32.9893C35.8684 32.4111 36.6184 31.6064 36.5793 30.5205C36.5559 30.0205 36.4231 29.5283 36.2434 29.0596C37.2278 28.6533 38.5011 28.4189 40.1184 28.6143C43.595 29.0205 44.2825 31.1924 44.1497 32.0986C44.0169 33.005 43.2904 33.5049 43.0481 33.6611C42.8059 33.8096 42.7278 33.8643 42.7512 33.9736C42.7825 34.1378 42.8918 34.1299 43.1028 34.0987C43.3918 34.0518 44.9309 33.3565 44.9934 31.6847C45.0872 29.536 43.0481 27.1922 39.4309 27.2156ZM12.6184 36.2546C11.47 37.5125 9.85279 37.989 9.16529 37.5828C8.4231 37.1531 8.71208 35.3015 10.1262 33.9656C10.9856 33.1531 12.1028 32.4031 12.8372 31.9421C13.0012 31.8406 13.2512 31.6922 13.5481 31.5125C13.595 31.4813 13.6262 31.4656 13.6262 31.4656C13.6809 31.4343 13.7434 31.3953 13.8059 31.3562C14.3293 33.2625 13.8293 34.9343 12.6184 36.2546ZM21.0168 30.5437C20.6184 31.5203 19.7747 34.0281 19.2668 33.8875C18.8293 33.7703 18.5637 31.8718 19.1808 29.9968C19.4933 29.0514 20.1574 27.9265 20.548 27.4889C21.1809 26.7858 21.8683 26.5514 22.0403 26.8405C22.2434 27.2156 21.2668 29.9343 21.0168 30.5437ZM27.9465 33.8562C27.7747 33.9422 27.6184 34.0046 27.5481 33.9578C27.4934 33.9266 27.6183 33.8094 27.6183 33.8094C27.6183 33.8094 28.4855 32.8797 28.8293 32.45C29.0246 32.2001 29.259 31.911 29.509 31.5828V31.6766C29.509 32.8015 28.4309 33.5515 27.9465 33.8562ZM33.2902 32.6375C33.1652 32.5437 33.1809 32.2546 33.6027 31.3484C33.7668 30.989 34.1418 30.3875 34.7902 29.8171C34.8683 30.0515 34.9153 30.278 34.9074 30.489C34.8997 31.8953 33.8997 32.4187 33.2902 32.6375Z" fill="#CF649A"/>
</svg>
