<svg viewBox="0 0 50 50" fill="none" xmlns="http://www.w3.org/2000/svg">
<path d="M25.0003 44.9994C13.9169 44.9994 4.91699 36.166 5.00058 24.9997C5.08417 13.8335 13.5005 5 25.0003 5C36.5009 5 45 13.9999 45 24.9997C45 35.9996 36.0837 44.9994 25.0003 44.9994ZM30.9166 41.9159L25.2503 26.6661L19.9168 42.2495C23.8339 43.1666 26.5003 43.4159 30.9166 41.9159ZM17.084 41.0831L8.58412 17.8334C7.41695 20.3334 7.16773 22.4169 7.00055 24.9997C7.08414 31.8324 10.9169 38.0823 17.084 41.0831ZM42.9172 24.9997C43 20.5834 41.0008 17.0834 40.8337 16.5834C41.0008 20.0006 40.5001 21.7498 39.9173 23.6669L34.0838 40.4167C41.4172 35.9996 42.8328 29.4161 43 24.9997H42.9172ZM24.4175 24.2497L21.5839 16.4998L19.5004 16.3334C18.6676 15.7498 19.1668 14.8335 19.7504 14.8335C23.5003 15.0834 25.5831 15.0834 29.3338 14.8335C30.251 14.8335 30.5002 16.167 29.4166 16.3334L27.4167 16.4998L33.9158 35.666L36.9986 25.1661C37.1657 20.5834 35.915 20.0834 34.2486 16.7498C32.915 14.1663 34.3322 11.6663 36.9157 11.5835C34.8314 9.58353 30.5822 7.08356 24.9987 6.99997C19.4152 6.91638 13.4989 9.74993 9.99894 15.0834L16.166 14.917C16.916 15.2506 16.5824 16.3334 16.166 16.417L13.9997 16.5834L20.4996 36.0831L24.4175 24.2497Z" fill="#21759B"/>
</svg>
