<svg width="200" height="200" viewBox="0 0 50 50" fill="none" xmlns="http://www.w3.org/2000/svg">
<path d="M25 6C14.5073 6 6 14.6405 6 25.2975C6 34.34 12.1307 41.9062 20.3957 44C20.307 43.7395 20.25 43.4372 20.25 43.0625V39.7642C19.4789 39.7642 18.1869 39.7642 17.8623 39.7642C16.5624 39.7642 15.4066 39.1965 14.8461 38.1416C14.2238 36.9693 14.1162 35.1762 12.574 34.0795C12.1164 33.7144 12.4647 33.2979 12.992 33.3542C13.9658 33.634 14.7733 34.3127 15.5333 35.3193C16.2901 36.3276 16.6463 36.556 18.0602 36.556C18.7458 36.556 19.7718 36.5158 20.7377 36.3614C21.257 35.0218 22.1548 33.7884 23.252 33.2063C16.925 32.5453 13.9056 29.3484 13.9056 25.008C13.9056 23.1394 14.6893 21.3319 16.0209 19.809C15.5839 18.2973 15.0345 15.2146 16.1888 14.0406C19.0356 14.0406 20.7567 15.9157 21.1699 16.4223C22.5886 15.9286 24.1466 15.6488 25.7838 15.6488C27.4241 15.6488 28.9884 15.9286 30.4103 16.4255C30.8188 15.9221 32.5414 14.0406 35.3946 14.0406C36.5536 15.2162 35.9978 18.3118 35.5561 19.8202C36.8798 21.3399 37.6588 23.1426 37.6588 25.008C37.6588 29.3452 34.6441 32.5405 28.3266 33.2047C30.0651 34.1261 31.3333 36.7152 31.3333 38.6658V43.0625C31.3333 43.2297 31.2969 43.3503 31.2779 43.4934C38.6816 40.8577 44 33.7176 44 25.2975C44 14.6405 35.4928 6 25 6Z" fill="black"/>
</svg>
