<svg width="200" height="200" viewBox="0 0 50 50" fill="none" xmlns="http://www.w3.org/2000/svg">
<path d="M22.8843 11.3677C22.8843 11.3677 20.8445 8.16826 23.0485 7.43128C23.0485 7.43128 23.1148 6.53364 21.5012 6.53364C19.8875 6.53364 20.0202 8.0076 19.9853 8.03903C19.9539 8.07396 19.8875 9.76796 22.8843 11.3677ZM24.994 11.3362C24.994 11.3362 27.4634 9.86227 27.1036 7.23918C27.1036 7.23918 27.0058 5.51025 25.2909 5.48231C25.2909 5.48231 23.513 5.35308 23.4467 7.14488C23.4432 7.14488 26.9045 6.27866 24.994 11.3362ZM26.5517 3.41458L26.0662 2H24.3688L23.8833 3.41458L25.2175 4.59514L26.5517 3.41458ZM19.4928 11.3048C19.4928 11.3048 18.6685 9.06591 19.5906 8.71314C19.5906 8.71314 19.2972 7.97616 18.6685 7.97616C18.0398 7.97616 17.6137 8.32893 17.6137 9.06242C17.6137 9.80289 18.8327 11.0149 19.4928 11.3048ZM13.9253 22.2163C13.3665 24.0744 15.6053 24.5529 15.6053 24.5529C14.9801 24.0081 15.8044 23.8474 15.8044 23.8474C16.5274 23.6867 17.9455 23.816 17.9455 23.816C21.7352 24.3294 21.2741 27.176 21.2741 27.176C19.7268 26.6311 18.8711 27.3996 18.8711 27.3996C17.7814 28.3251 17.2539 27.5917 17.2539 27.5917C16.5309 30.3125 18.0782 31.5595 18.0782 31.5595C18.6406 28.168 22.0635 27.913 22.0635 27.913C22.0321 24.4272 26.1815 25.3842 26.1815 25.3842C25.3572 23.5261 23.4152 23.3339 23.4152 23.3339C26.3806 22.9183 26.0837 20.421 26.0837 20.421C24.271 21.6714 21.6653 21.1265 21.6653 21.1265C24.271 20.166 24.0369 18.472 24.0369 18.472C22.4547 19.656 20.5442 19.3033 20.5442 19.3033C21.6653 19.0134 21.1379 17.2565 21.1379 17.2565C20.9738 18.1821 18.7663 18.1192 18.7663 18.1192C17.0199 17.99 17.1527 19.3033 17.1527 19.3033C17.219 19.4639 18.176 19.8481 18.7663 20.0717C19.3601 20.2952 19.4928 20.5537 19.4928 20.5537C19.4265 21.35 18.6685 21.2557 18.6685 21.2557C17.9769 21.2557 17.9769 20.5223 17.9769 20.5223C16.758 20.138 14.1209 21.1929 14.1209 21.1929C13.1359 21.6399 13.9253 22.2163 13.9253 22.2163ZM27.7288 11.3677C27.7288 11.3677 30.7885 10.4071 30.6593 7.62339C30.6593 7.62339 30.4951 6.4079 29.1783 6.43933C29.1783 6.43933 27.9593 6.5022 27.6625 7.39636C27.6625 7.39985 29.6044 8.65027 27.7288 11.3677ZM32.8003 11.4969C31.1867 12.873 26.7089 12.2967 26.7089 12.2967C23.9741 11.9754 23.4467 12.4923 22.3918 13.4144C21.2392 14.4238 21.5675 16.6138 21.5675 16.6138C24.0404 12.9988 26.0488 14.6614 26.0488 14.6614C23.775 15.8489 24.3688 18.1856 24.3688 18.1856C26.412 15.1469 29.2447 16.5544 29.2447 16.5544C30.8723 17.3229 33.0344 17.1308 33.0344 17.1308C36.2966 17.0015 37.0546 14.0885 37.0546 14.0885C34.3546 15.4333 30.2681 14.347 30.2681 14.347C32.9645 13.0337 32.8003 11.4969 32.8003 11.4969ZM24.7634 32.8728C25.8811 34.5353 26.674 37.4483 26.674 37.4483C28.1549 35.5936 26.5762 33.1627 26.5762 33.1627C24.1068 30.2846 24.8612 28.6814 24.8612 28.6814C23.1498 30.8225 24.7634 32.8728 24.7634 32.8728Z" fill="#F57F17"/>
<path d="M30.7896 17.7667C30.7896 17.7667 26.5389 16.6804 26.6053 20.2011C26.6053 20.2011 29.1096 18.6014 31.2192 20.1697C31.4847 20.1068 33.8528 22.0558 36.6226 19.4013C36.6226 19.4013 37.873 17.7038 39.6229 17.833C39.6229 17.833 38.3375 15.9784 35.8018 17.386C33.259 18.7935 34.1497 19.0171 30.7896 17.7667Z" fill="#F57F17"/>
<path d="M33.8539 22.0246C33.8539 22.0246 28.6182 19.1116 26.9696 23.4322C26.9696 23.4322 30.2318 21.3854 33.3928 23.8793C33.3928 23.8793 36.4909 25.7689 38.6949 23.9771C38.6949 23.9771 40.6403 22.4402 41.0001 21.4483C41.0036 21.4483 38.157 23.771 33.8539 22.0246ZM31.119 11.176C31.119 11.176 32.7327 10.5997 33.0296 8.90219C33.0296 8.90219 33.0924 7.94168 32.104 7.91024C32.104 7.91024 31.346 7.84388 31.0491 8.51799C31.0526 8.52148 32.0411 9.64267 31.119 11.176ZM22.6455 12.381C22.6455 12.381 19.7535 10.8582 18.4332 13.579C18.4332 13.579 17.3819 15.0495 19.8827 17.3233C19.8862 17.3233 18.3319 13.7257 22.6455 12.381ZM32.9946 30.4108C32.9946 30.4108 30.9199 25.8352 26.505 26.9844C26.505 26.9844 29.1386 27.8191 30.6894 30.4108C30.6894 30.4108 32.4009 35.0527 37.2104 32.7475C37.2139 32.744 34.1507 32.9046 32.9946 30.4108Z" fill="#F57F17"/>
<path d="M36.4235 26.2159C34.3139 27.6549 32.5535 25.2868 32.4033 25.1261C31.8584 24.5533 29.2738 22.3109 27.0314 25.2519C27.0314 25.2519 29.6999 24.5184 31.7432 26.9808C33.7864 29.4467 36.0603 29.1603 37.5412 27.9099C39.0221 26.6629 40.6044 26.2787 40.6044 26.2787C40.6044 26.2787 38.5297 24.7768 36.4235 26.2159ZM33.1962 35.4333C33.1962 35.4333 30.3635 34.9863 29.6021 31.8812C29.6021 31.8812 28.8127 29.0311 25.6832 28.0391C25.3723 27.9413 26.9336 29.286 27.8243 32.2305C27.8243 32.2305 29.6335 36.7781 33.1962 35.4333ZM18.9631 26.5058C18.24 24.1062 14.2513 25.6116 14.2513 25.6116C10.266 27.0192 10.0669 24.3333 10.0669 24.3333C8.2891 25.9644 9.1099 26.862 9.8364 27.4383C10.5594 28.0112 12.0753 28.0775 14.9429 26.9563C17.8069 25.8317 18.9631 26.5058 18.9631 26.5058ZM23.2452 33.5123C21.7608 30.9521 23.2452 29.2267 23.2452 29.2267C20.8736 29.8973 21.6315 32.5867 21.6315 32.5867C22.5222 34.3471 22.0612 36.9387 22.0612 36.9387C24.1359 36.6174 23.2452 33.5123 23.2452 33.5123Z" fill="#F57F17"/>
<path d="M20.315 32.5863C19.2951 30.6339 21.8938 28.8071 21.8938 28.8071C18.0063 30.1519 19.3266 32.4571 19.3266 32.4571C19.854 34.0568 19.1275 35.4958 19.1275 35.4958C21.1044 34.2803 20.315 32.5863 20.315 32.5863ZM16.4555 41.0633L19.4209 44.2138H17.3776L15.4146 42.0343L15.3134 42.1531L15.0304 42.436V44.2138H13.4727V37.8011H15.0304V40.4661C15.8408 39.5789 16.6301 38.6882 17.4265 37.8011H19.379L16.4555 41.0633ZM24.4365 44.2138L21.8204 40.5848V44.1859H20.2207V37.8011H21.7296L24.3387 41.4301V37.829H25.9349V44.2138H24.4365ZM32.7214 37.8011L29.749 44.7168L26.7837 37.8011H28.4427L29.749 40.99L31.0623 37.8011H32.7214ZM36.9721 42.2613C36.9721 41.7479 36.2421 41.713 36.05 41.713H35.107V42.8202H35.9976C36.3644 42.8202 36.9721 42.7399 36.9721 42.2613ZM35.1105 40.3124H36.0011C36.0011 40.3124 36.8708 40.3124 36.8708 39.764C36.8708 39.3519 36.4273 39.1982 36.0011 39.1982H35.1105V40.3124ZM37.6882 40.997C37.9318 41.0868 38.142 41.2492 38.2906 41.4621C38.4392 41.675 38.5191 41.9283 38.5194 42.188V42.2893C38.5194 44.1195 36.4762 44.2103 36.0011 44.2103H33.5632V37.8011H36.0116C36.2142 37.8011 38.4321 37.8465 38.4321 39.6872C38.4412 39.9529 38.3765 40.216 38.2452 40.4472C38.1139 40.6784 37.9211 40.8687 37.6882 40.997Z" fill="#F57F17"/>
</svg>
