<svg width="200" height="200" viewBox="0 0 50 50" fill="none" xmlns="http://www.w3.org/2000/svg">
<path d="M41.1856 6H8.80487C7.25875 6 6 7.22669 6 8.73719V41.2557C6 42.7698 7.25875 43.9988 8.80487 43.9988H41.188C42.7377 43.9988 44 42.7698 44 41.2557V8.73719C44 7.22669 42.7377 6 41.1856 6Z" fill="#0177B5"/>
<path d="M11.6346 20.2452H17.2812V38.3783H11.6346V20.2452ZM14.4538 11.2202C16.2552 11.2202 17.7194 12.6844 17.7194 14.4858C17.7194 16.2873 16.2552 17.755 14.4549 17.755C13.5884 17.7531 12.7578 17.4082 12.1449 16.7955C11.5321 16.1828 11.1868 15.3524 11.1846 14.4858C11.1846 14.0567 11.2692 13.6318 11.4335 13.2353C11.5978 12.8389 11.8387 12.4787 12.1423 12.1754C12.4459 11.8721 12.8063 11.6317 13.203 11.4678C13.5996 11.3039 14.0246 11.2197 14.4538 11.2202ZM20.8069 20.2452H26.2124V22.7235H26.2872C27.0401 21.2985 28.8783 19.7952 31.6309 19.7952C37.3381 19.7952 38.3914 23.5512 38.3914 28.433V38.3795H32.7591V29.5588C32.7591 27.4569 32.7211 24.7494 29.8307 24.7494C26.8976 24.7494 26.4463 27.0413 26.4463 29.4044V38.3748H20.8152V20.2417L20.8069 20.2452Z" fill="white"/>
</svg>
