<svg width="50" height="50" viewBox="0 0 50 50" fill="none" xmlns="http://www.w3.org/2000/svg">
<path d="M23.6901 5.01077C23.6041 5.01859 23.3304 5.04596 23.0841 5.06551C17.4027 5.57773 12.0811 8.64322 8.71065 13.3549C6.83382 15.9746 5.63343 18.9462 5.17986 22.0939C5.01955 23.1926 5 23.5171 5 25.0069C5 26.4966 5.01955 26.8211 5.17986 27.9199C6.26686 35.4311 11.6119 41.7419 18.8612 44.0802C20.1593 44.4985 21.5279 44.784 23.0841 44.956C23.6901 45.0225 26.3099 45.0225 26.9159 44.956C29.6022 44.6589 31.8778 43.9941 34.1222 42.8485C34.4663 42.6725 34.5327 42.6256 34.4858 42.5865C34.4545 42.5631 32.9883 40.5963 31.2287 38.219L28.0303 33.8984L24.0225 27.9668C21.8172 24.7058 20.0029 22.0391 19.9873 22.0391C19.9717 22.0352 19.956 24.6706 19.9482 27.8886C19.9365 33.523 19.9326 33.7498 19.8622 33.8827C19.7605 34.0743 19.6823 34.1525 19.5181 34.2385C19.393 34.3011 19.2835 34.3128 18.6931 34.3128H18.0166L17.8368 34.1994C17.7195 34.1251 17.6334 34.0274 17.5748 33.914L17.4927 33.738L17.5005 25.8984L17.5122 18.0548L17.6334 17.9023C17.696 17.8201 17.8289 17.7146 17.9228 17.6637C18.0831 17.5855 18.1457 17.5777 18.8221 17.5777C19.6197 17.5777 19.7527 17.609 19.9599 17.8358C20.0186 17.8984 22.1887 21.1672 24.7849 25.1046C27.3812 29.042 30.9316 34.4184 32.6755 37.0577L35.8426 41.8553L36.0029 41.7498C37.4223 40.827 38.9238 39.5132 40.1124 38.1447C42.6422 35.2395 44.2727 31.697 44.8201 27.9199C44.9805 26.8211 45 26.4966 45 25.0069C45 23.5171 44.9805 23.1926 44.8201 22.0939C43.7331 14.5826 38.3881 8.27176 31.1388 5.93354C29.8602 5.51907 28.4995 5.23364 26.9746 5.0616C26.5992 5.0225 24.0147 4.97949 23.6901 5.01077ZM31.8778 17.1085C32.0655 17.2024 32.218 17.3822 32.2727 17.5699C32.304 17.6716 32.3118 19.8456 32.304 24.7449L32.2923 31.7752L31.0528 29.8749L29.8094 27.9746V22.8641C29.8094 19.5601 29.825 17.7028 29.8485 17.6129C29.911 17.394 30.0479 17.2219 30.2356 17.1202C30.3959 17.0381 30.4545 17.0303 31.0684 17.0303C31.6471 17.0303 31.7488 17.0381 31.8778 17.1085Z" fill="black"/>
</svg>
