<svg width="50" height="50" viewBox="0 0 50 50" fill="none" xmlns="http://www.w3.org/2000/svg">
<path d="M46.6192 25.0043C46.6192 22.1776 43.0836 19.4987 37.6628 17.8375C38.9137 12.3058 38.3578 7.90478 35.908 6.49577C35.3433 6.16525 34.6831 6.0087 33.962 6.0087V7.94827C34.3617 7.94827 34.6831 8.02655 34.9524 8.17441C36.1338 8.85283 36.6464 11.436 36.2468 14.7585C36.1512 15.5761 35.9948 16.4372 35.8037 17.3156C34.101 16.8981 32.242 16.5763 30.2874 16.3676C29.1146 14.7585 27.8984 13.2973 26.6735 12.0188C29.5055 9.38338 32.1638 7.93957 33.9707 7.93957V6C31.5818 6 28.4544 7.70474 25.2923 10.6619C22.1301 7.72213 19.0027 6.03479 16.6138 6.03479V7.97436C18.412 7.97436 21.079 9.40948 23.911 12.0275C22.6948 13.306 21.4786 14.7585 20.3232 16.3676C18.3599 16.5763 16.5008 16.8981 14.7982 17.3243C14.5983 16.4546 14.4507 15.6109 14.3464 14.802C13.9381 11.4795 14.442 8.89631 15.6147 8.2092C15.8754 8.05264 16.2142 7.98306 16.6138 7.98306V6.04349C15.884 6.04349 15.2238 6.20005 14.6505 6.53056C12.2094 7.93957 11.6621 12.3319 12.9217 17.8462C7.5183 19.5161 4 22.1863 4 25.0043C4 27.8311 7.53568 30.51 12.9565 32.1712C11.7055 37.7029 12.2615 42.1039 14.7113 43.5129C15.2759 43.8434 15.9362 44 16.6659 44C19.0549 44 22.1822 42.2953 25.3444 39.3381C28.5065 42.2779 31.6339 43.9652 34.0229 43.9652C34.7526 43.9652 35.4128 43.8086 35.9862 43.4781C38.4273 42.0691 38.9745 37.6768 37.7149 32.1625C43.1009 30.5013 46.6192 27.8224 46.6192 25.0043ZM35.3086 19.203C34.9871 20.325 34.5875 21.4818 34.1358 22.6386C33.7796 21.9428 33.4061 21.247 32.9978 20.5512C32.5982 19.8553 32.1725 19.1769 31.7468 18.5159C32.9804 18.6986 34.1705 18.9247 35.3086 19.203ZM31.3298 28.466C30.6522 29.6402 29.9573 30.7535 29.2362 31.7885C27.9418 31.9016 26.6301 31.9625 25.3096 31.9625C23.9979 31.9625 22.6861 31.9016 21.4004 31.7972C20.6794 30.7622 19.9757 29.6576 19.2981 28.4921C18.6379 27.3527 18.0385 26.1959 17.4912 25.0304C18.0298 23.865 18.6379 22.6995 19.2894 21.5601C19.967 20.3859 20.662 19.2726 21.383 18.2376C22.6774 18.1245 23.9892 18.0636 25.3096 18.0636C26.6214 18.0636 27.9331 18.1245 29.2189 18.2289C29.9399 19.2639 30.6435 20.3685 31.3211 21.534C31.9814 22.6734 32.5808 23.8302 33.1281 24.9956C32.5808 26.1611 31.9814 27.3266 31.3298 28.466ZM34.1358 27.3353C34.6049 28.5008 35.0045 29.6663 35.3346 30.797C34.1966 31.0753 32.9978 31.3101 31.7555 31.4928C32.1812 30.8231 32.6068 30.136 33.0065 29.4314C33.4061 28.7356 33.7796 28.0311 34.1358 27.3353ZM25.327 36.6157C24.5191 35.7807 23.7112 34.8501 22.912 33.8325C23.6938 33.8672 24.493 33.8933 25.3009 33.8933C26.1175 33.8933 26.9254 33.8759 27.716 33.8325C26.9341 34.8501 26.1262 35.7807 25.327 36.6157ZM18.8637 31.4928C17.6302 31.3101 16.44 31.084 15.302 30.8057C15.6234 29.6837 16.023 28.5269 16.4748 27.3701C16.8309 28.0659 17.2045 28.7617 17.6128 29.4575C18.0211 30.1534 18.4381 30.8318 18.8637 31.4928ZM25.2836 13.393C26.0915 14.228 26.8994 15.1586 27.6986 16.1762C26.9168 16.1415 26.1175 16.1154 25.3096 16.1154C24.493 16.1154 23.6851 16.1328 22.8946 16.1762C23.6764 15.1586 24.4843 14.228 25.2836 13.393ZM18.8551 18.5159C18.4294 19.1856 18.0037 19.8727 17.6041 20.5772C17.2045 21.2731 16.8309 21.9689 16.4748 22.6647C16.0057 21.4992 15.6061 20.3337 15.2759 19.203C16.414 18.9334 17.6128 18.6986 18.8551 18.5159ZM10.9932 29.4054C7.91791 28.092 5.92855 26.3699 5.92855 25.0043C5.92855 23.6388 7.91791 21.908 10.9932 20.6033C11.7403 20.2815 12.5569 19.9945 13.3995 19.7249C13.8947 21.4296 14.5462 23.2039 15.3541 25.0217C14.5549 26.8309 13.9121 28.5965 13.4256 30.2925C12.5656 30.0229 11.749 29.7272 10.9932 29.4054ZM15.6669 41.8343C14.4854 41.1559 13.9729 38.5727 14.3725 35.2502C14.468 34.4326 14.6244 33.5715 14.8155 32.6931C16.5182 33.1105 18.3773 33.4324 20.3319 33.6411C21.5046 35.2502 22.7208 36.7114 23.9457 37.9899C21.1137 40.6253 18.4554 42.0691 16.6485 42.0691C16.2576 42.0604 15.9275 41.9821 15.6669 41.8343ZM36.2728 35.2067C36.6811 38.5292 36.1773 41.1124 35.0045 41.7995C34.7439 41.9561 34.4051 42.0256 34.0055 42.0256C32.2072 42.0256 29.5403 40.5905 26.7083 37.9725C27.9245 36.694 29.1407 35.2415 30.2961 33.6324C32.2594 33.4237 34.1184 33.1019 35.8211 32.6757C36.0209 33.5541 36.1773 34.3978 36.2728 35.2067ZM39.6174 29.4054C38.8703 29.7272 38.0537 30.0142 37.211 30.2838C36.7159 28.5791 36.0643 26.8048 35.2564 24.987C36.0557 23.1778 36.6985 21.4122 37.185 19.7162C38.045 19.9858 38.8616 20.2815 39.6261 20.6033C42.7013 21.9167 44.6907 23.6388 44.6907 25.0043C44.682 26.3699 42.6927 28.1007 39.6174 29.4054Z" fill="#61DAFB"/>
<path d="M25.3011 28.9792C27.4937 28.9792 29.2711 27.1996 29.2711 25.0044C29.2711 22.8091 27.4937 21.0295 25.3011 21.0295C23.1085 21.0295 21.3311 22.8091 21.3311 25.0044C21.3311 27.1996 23.1085 28.9792 25.3011 28.9792Z" fill="#61DAFB"/>
</svg>
