<svg width="50" height="50" viewBox="0 0 50 50" fill="none" xmlns="http://www.w3.org/2000/svg">
<path fill-rule="evenodd" clip-rule="evenodd" d="M35.3944 7.89388C30.8301 5.07692 25.1102 4.30351 19.9348 5.63075C12.1333 7.56909 5.94542 14.6353 5.15309 22.6469C4.1694 30.2288 7.9986 38.1257 14.5586 42.0409C20.9947 46.0705 29.7128 45.9081 36.0151 41.6684C41.6776 37.9921 45.2012 31.2887 44.9911 24.5281C44.8957 17.8343 41.1428 11.3316 35.3944 7.89388ZM41.9263 22.7043C40.9142 12.2195 28.9207 4.99095 19.1426 8.90612C12.1719 11.3507 7.30196 18.6843 7.97994 26.0751C8.23769 35.2037 17.0227 42.9099 26.1132 42.0027C35.6718 41.7257 43.502 32.1386 41.9263 22.7043Z" fill="#010101"/>
<path d="M20.1258 23.9649C24.5088 20.384 28.7962 16.679 33.2747 13.2031C30.9256 16.8127 28.5098 20.3744 26.1607 23.9839C24.1458 23.9935 22.1312 23.9937 20.1258 23.9649ZM23.8308 25.9605C25.8551 25.9605 27.87 25.9605 29.8848 25.9893C25.4732 29.5509 21.2049 33.2845 16.7168 36.7509C19.0659 33.1413 21.4817 29.5702 23.8308 25.9605Z" fill="#010101"/>
</svg>
