<svg width="50" height="50" viewBox="0 0 50 50" fill="none" xmlns="http://www.w3.org/2000/svg">
<path d="M5 25V5H45V45H5" fill="#007ACC"/>
<path d="M13.7705 25.0695V26.6995H18.9705V41.4995H22.6605V26.6995H27.8605V25.0995C27.8605 24.1995 27.8605 23.4695 27.8205 23.4495C27.8205 23.4195 24.6505 23.4095 20.8005 23.4095L13.8005 23.4395V25.0795L13.7705 25.0695ZM37.1405 23.3995C38.1605 23.6395 38.9405 24.0995 39.6405 24.8295C40.0105 25.2295 40.5605 25.9295 40.6005 26.1095C40.6005 26.1695 38.8705 27.3395 37.8205 27.9895C37.7805 28.0195 37.6205 27.8495 37.4605 27.5895C36.9405 26.8495 36.4105 26.5295 35.5805 26.4695C34.3805 26.3895 33.5805 27.0195 33.5805 28.0695C33.5805 28.3895 33.6405 28.5695 33.7605 28.8295C34.0305 29.3795 34.5305 29.7095 36.0805 30.3895C38.9405 31.6195 40.1805 32.4295 40.9305 33.5895C41.7805 34.8895 41.9705 36.9295 41.4005 38.4595C40.7605 40.1295 39.2005 41.2595 36.9705 41.6295C36.2705 41.7495 34.6705 41.7295 33.9205 41.5995C32.3205 41.2995 30.7905 40.4995 29.8505 39.4695C29.4805 39.0695 28.7705 37.9995 28.8105 37.9295L29.1905 37.6895L30.6905 36.8195L31.8205 36.1595L32.0805 36.5095C32.4105 37.0295 33.1505 37.7295 33.5805 37.9695C34.8805 38.6395 36.6205 38.5495 37.4805 37.7695C37.8505 37.4295 38.0105 37.0695 38.0105 36.5695C38.0105 36.1095 37.9405 35.8995 37.7105 35.5495C37.3905 35.1095 36.7505 34.7495 34.9505 33.9495C32.8805 33.0695 32.0005 32.5095 31.1805 31.6495C30.7105 31.1295 30.2805 30.3195 30.0805 29.6495C29.9305 29.0695 29.8805 27.6495 30.0205 27.0795C30.4505 25.0795 31.9605 23.6795 34.1205 23.2795C34.8205 23.1395 36.4705 23.1995 37.1605 23.3795L37.1405 23.3995Z" fill="white"/>
</svg>
